<svg width="36" height="36" viewBox="0 0 36 36" fill="none" xmlns="http://www.w3.org/2000/svg">
<g id="icon-park-outline:medical-box">
<g id="Group">
<path id="Vector" d="M30.75 12.75H5.25C4.85218 12.75 4.47064 12.908 4.18934 13.1893C3.90804 13.4706 3.75 13.8522 3.75 14.25V29.25C3.75 29.6478 3.90804 30.0294 4.18934 30.3107C4.47064 30.592 4.85218 30.75 5.25 30.75H30.75C31.1478 30.75 31.5294 30.592 31.8107 30.3107C32.092 30.0294 32.25 29.6478 32.25 29.25V14.25C32.25 13.8522 32.092 13.4706 31.8107 13.1893C31.5294 12.908 31.1478 12.75 30.75 12.75ZM25.5 5.25H10.5V12.75H25.5V5.25Z" stroke="black" stroke-width="3" stroke-linejoin="round"/>
<path id="Vector_2" d="M14.25 21.75H21.75M18 18V25.5" stroke="black" stroke-width="2" stroke-linecap="round"/>
</g>
</g>
</svg>
