<svg width="27" height="27" viewBox="0 0 27 27" fill="none" xmlns="http://www.w3.org/2000/svg">
<g id="material-symbols:engineering-outline">
<path id="Vector" d="M1.18164 23.625V20.475C1.18164 19.8563 1.34102 19.275 1.65977 18.7312C1.97852 18.1875 2.41914 17.775 2.98164 17.4938C3.93789 17.0063 5.01602 16.5938 6.21602 16.2562C7.41602 15.9187 8.73789 15.75 10.1816 15.75C11.6254 15.75 12.9473 15.9187 14.1473 16.2562C15.3473 16.5938 16.4254 17.0063 17.3816 17.4938C17.9441 17.775 18.3848 18.1875 18.7035 18.7312C19.0223 19.275 19.1816 19.8563 19.1816 20.475V23.625H1.18164ZM3.43164 21.375H16.9316V20.475C16.9316 20.2688 16.8799 20.0813 16.7764 19.9125C16.6729 19.7438 16.5371 19.6125 16.3691 19.5188C15.6941 19.1813 14.8268 18.8438 13.767 18.5063C12.7073 18.1688 11.5121 18 10.1816 18C8.85039 18 7.65489 18.1688 6.59514 18.5063C5.53539 18.8438 4.66839 19.1813 3.99414 19.5188C3.82539 19.6125 3.68964 19.7438 3.58689 19.9125C3.48414 20.0813 3.43239 20.2688 3.43164 20.475V21.375ZM10.1816 14.625C8.94414 14.625 7.88477 14.1844 7.00352 13.3031C6.12227 12.4219 5.68164 11.3625 5.68164 10.125H5.40039C5.23164 10.125 5.09589 10.0733 4.99314 9.96975C4.89039 9.86625 4.83864 9.7305 4.83789 9.5625C4.83789 9.39375 4.88964 9.25763 4.99314 9.15413C5.09664 9.05063 5.23239 8.99925 5.40039 9H5.68164C5.68164 8.15625 5.88789 7.39687 6.30039 6.72187C6.71289 6.04687 7.25664 5.5125 7.93164 5.11875V6.1875C7.93164 6.35625 7.98339 6.49237 8.08689 6.59587C8.19039 6.69937 8.32614 6.75075 8.49414 6.75C8.66289 6.75 8.79902 6.69825 8.90252 6.59475C9.00602 6.49125 9.05739 6.3555 9.05664 6.1875V4.66875C9.22539 4.6125 9.40351 4.57013 9.59101 4.54163C9.77851 4.51313 9.97539 4.49925 10.1816 4.5C10.3879 4.5 10.5848 4.51425 10.7723 4.54275C10.9598 4.57125 11.1379 4.61325 11.3066 4.66875V6.1875C11.3066 6.35625 11.3584 6.49237 11.4619 6.59587C11.5654 6.69937 11.7011 6.75075 11.8691 6.75C12.0379 6.75 12.174 6.69825 12.2775 6.59475C12.381 6.49125 12.4324 6.3555 12.4316 6.1875V5.11875C13.1066 5.5125 13.6504 6.04687 14.0629 6.72187C14.4754 7.39687 14.6816 8.15625 14.6816 9H14.9629C15.1316 9 15.2678 9.05175 15.3713 9.15525C15.4748 9.25875 15.5261 9.3945 15.5254 9.5625C15.5254 9.73125 15.4736 9.86737 15.3701 9.97087C15.2666 10.0744 15.1309 10.1258 14.9629 10.125H14.6816C14.6816 11.3625 14.241 12.4219 13.3598 13.3031C12.4785 14.1844 11.4191 14.625 10.1816 14.625ZM10.1816 12.375C10.8004 12.375 11.3303 12.1545 11.7713 11.7135C12.2123 11.2725 12.4324 10.743 12.4316 10.125H7.93164C7.93164 10.7438 8.15214 11.2736 8.59314 11.7146C9.03414 12.1556 9.56364 12.3757 10.1816 12.375ZM18.6191 16.875L18.4504 16.0312C18.3379 15.9937 18.2303 15.9514 18.1275 15.9041C18.0248 15.8569 17.9261 15.7867 17.8316 15.6937L17.0441 15.975L16.4816 14.9625L17.1004 14.4V13.725L16.4816 13.1625L17.0441 12.15L17.8316 12.4313C17.9066 12.3562 18.0004 12.2906 18.1129 12.2344C18.2254 12.1781 18.3379 12.1313 18.4504 12.0938L18.6191 11.25H19.7441L19.9129 12.0938C20.0254 12.1313 20.1379 12.1781 20.2504 12.2344C20.3629 12.2906 20.4566 12.3562 20.5316 12.4313L21.3191 12.15L21.8816 13.1625L21.2629 13.725V14.4L21.8816 14.9625L21.3191 15.975L20.5316 15.6937C20.4379 15.7875 20.3393 15.858 20.2358 15.9052C20.1323 15.9525 20.0246 15.9945 19.9129 16.0312L19.7441 16.875H18.6191ZM19.1816 14.9062C19.4066 14.9062 19.6035 14.8219 19.7723 14.6531C19.941 14.4844 20.0254 14.2875 20.0254 14.0625C20.0254 13.8375 19.941 13.6406 19.7723 13.4719C19.6035 13.3031 19.4066 13.2188 19.1816 13.2188C18.9566 13.2188 18.7598 13.3031 18.591 13.4719C18.4223 13.6406 18.3379 13.8375 18.3379 14.0625C18.3379 14.2875 18.4223 14.4844 18.591 14.6531C18.7598 14.8219 18.9566 14.9062 19.1816 14.9062ZM21.2066 11.25L20.9816 10.0687C20.8129 10.0125 20.6584 9.942 20.5181 9.85725C20.3779 9.7725 20.2511 9.67425 20.1379 9.5625L18.9566 9.95625L18.1691 8.60625L19.1254 7.7625C19.0879 7.66875 19.0691 7.59375 19.0691 7.5375V7.0875C19.0691 7.03125 19.0879 6.95625 19.1254 6.8625L18.1691 6.01875L18.9566 4.66875L20.1379 5.0625C20.2504 4.95 20.3771 4.85137 20.5181 4.76662C20.6591 4.68187 20.8136 4.61175 20.9816 4.55625L21.2066 3.375H22.7816L23.0066 4.55625C23.1754 4.6125 23.3303 4.683 23.4713 4.76775C23.6123 4.8525 23.7386 4.95075 23.8504 5.0625L25.0316 4.66875L25.8191 6.01875L24.8629 6.8625C24.9004 6.95625 24.9191 7.03125 24.9191 7.0875V7.5375C24.9191 7.59375 24.9004 7.66875 24.8629 7.7625L25.8191 8.60625L25.0316 9.95625L23.8504 9.5625C23.7379 9.675 23.6115 9.77362 23.4713 9.85837C23.331 9.94312 23.1761 10.0132 23.0066 10.0687L22.7816 11.25H21.2066ZM21.9941 8.71875C22.3879 8.71875 22.7209 8.58262 22.9931 8.31038C23.2654 8.03813 23.4011 7.7055 23.4004 7.3125C23.4004 6.91875 23.2643 6.58575 22.992 6.3135C22.7198 6.04125 22.3871 5.9055 21.9941 5.90625C21.6004 5.90625 21.2674 6.04237 20.9951 6.31462C20.7229 6.58687 20.5871 6.9195 20.5879 7.3125C20.5879 7.70625 20.724 8.03925 20.9963 8.3115C21.2685 8.58375 21.6011 8.7195 21.9941 8.71875Z" fill="black"/>
</g>
</svg>
